<svg width="78" height="78" viewBox="0 0 78 78" fill="none" xmlns="http://www.w3.org/2000/svg">
    <circle cx="39" cy="39" r="36.5625" fill="#162E26"/>
    <path d="M19.5 55.8304V40.6869H22.8302V55.8304H19.5Z" fill="white"/>
    <path d="M26.6891 55.8304V40.6869H32.0379C36.4713 40.6869 39.4477 43.5917 39.4477 48.2697C39.4477 52.9477 36.4713 55.831 32.0177 55.831H26.6898L26.6891 55.8304ZM31.892 52.6475C34.1608 52.6475 36.0132 51.3021 36.0132 48.269C36.0132 45.2359 34.1608 43.8692 31.892 43.8692H29.977V52.6475H31.892Z" fill="white"/>
    <path d="M46.6443 52.7545L45.5829 55.8304H42.1282L47.6855 40.6869H51.494L56.9888 55.8304H53.409L52.3476 52.7545H46.6443ZM47.7266 49.6786H51.3064L49.5373 44.4455L47.7266 49.6786Z" fill="white"/>
    <path d="M41.0177 27.8524H40.5603V55.8304H41.0177V27.8524Z" fill="white"/>
    <path d="M58.5 19.5H58.1019V55.8304H58.5V19.5Z" fill="white"/>
    <path d="M24.9862 35.4378H24.5288V55.8304H24.9862V35.4378Z" fill="white"/>
</svg>
