<svg width="22" height="11" viewBox="0 0 22 11" fill="none" xmlns="http://www.w3.org/2000/svg">
<path d="M3.25382e-06 10.9463C3.25382e-06 10.9755 0.0239163 10.9997 0.0532496 10.9997H1.22116C2.68081 10.9997 3.29203 9.97953 3.29203 8.97695V3.2997C3.29207 3.29276 3.29073 3.28589 3.28808 3.27947C3.28542 3.27304 3.28151 3.2672 3.27657 3.26227C3.27162 3.25734 3.26574 3.25341 3.25926 3.25072C3.25278 3.24803 3.24582 3.24662 3.23879 3.24658H1.5738C1.56671 3.24658 1.55969 3.24797 1.55315 3.25066C1.54661 3.25335 1.54068 3.2573 1.5357 3.26227C1.53071 3.26724 1.52678 3.27313 1.52413 3.27961C1.52147 3.28609 1.52015 3.29302 1.52024 3.30001V8.86758C1.52024 9.28778 1.34455 9.50653 0.891482 9.50653H0.062496C0.0542354 9.50652 0.0460567 9.50814 0.0384329 9.51127C0.030809 9.51441 0.0238914 9.519 0.01808 9.52479C0.0122686 9.53058 0.00767875 9.53744 0.00457595 9.54499C0.00147316 9.55253 -8.1038e-05 9.56061 3.25382e-06 9.56875V10.9463Z" fill="white"/>
<path d="M6.44389 4.66895H7.64687C7.65391 4.66891 7.66086 4.66751 7.66735 4.66482C7.67383 4.66212 7.67971 4.6582 7.68465 4.65327C7.6896 4.64834 7.69351 4.64249 7.69616 4.63607C7.69882 4.62965 7.70016 4.62277 7.70012 4.61584V3.32193C7.70016 3.31499 7.69882 3.30812 7.69616 3.3017C7.69351 3.29527 7.6896 3.28943 7.68465 3.2845C7.67971 3.27957 7.67383 3.27564 7.66735 3.27295C7.66086 3.27026 7.65391 3.26885 7.64687 3.26881H6.41168C6.39748 3.26881 6.38385 3.26325 6.37381 3.25335C6.36376 3.24345 6.35812 3.23002 6.35812 3.21601V1.99533C6.3582 1.98597 6.35574 1.97675 6.351 1.96865C6.34625 1.96054 6.33939 1.95383 6.33113 1.94921C6.32287 1.94459 6.31351 1.94224 6.30401 1.94239C6.29452 1.94254 6.28524 1.94519 6.27713 1.95007L4.64562 2.93535C4.63781 2.94013 4.63136 2.94679 4.6269 2.95471C4.62243 2.96263 4.6201 2.97155 4.62012 2.98061V7.31241H4.62458C4.64212 8.14558 5.09009 8.97875 6.10081 9.21007C6.19328 9.23207 6.28989 9.24935 6.39096 9.25815C6.48757 9.27104 6.58418 9.27544 6.68939 9.27544H7.64687C7.66102 9.27536 7.67457 9.26976 7.68454 9.25987C7.69452 9.24997 7.70012 9.23659 7.70012 9.22264V7.84921C7.70012 7.84921 7.69884 7.78698 7.63794 7.78698L7.01907 7.78793C6.56632 7.78793 6.39096 7.56981 6.39096 7.15118V4.72175C6.39096 4.69253 6.41455 4.66895 6.4442 4.66895" fill="white"/>
<path d="M16.7742 9.27595H21.9458C21.9757 9.27595 22 9.25237 22 9.22346V7.8186C21.9999 7.81164 21.9985 7.80476 21.9957 7.79835C21.993 7.79194 21.989 7.78613 21.9839 7.78125C21.9789 7.77637 21.9729 7.77252 21.9664 7.76992C21.9598 7.76733 21.9528 7.76603 21.9458 7.76612H16.7742C16.7671 7.76603 16.7602 7.76732 16.7536 7.76989C16.7471 7.77247 16.7411 7.77629 16.7361 7.78114C16.7311 7.78598 16.7271 7.79176 16.7243 7.79813C16.7215 7.8045 16.7201 7.81135 16.72 7.81829V9.22346C16.72 9.25237 16.7442 9.27595 16.7742 9.27595Z" fill="white"/>
<path d="M1.54004 2.3183V1.13187C1.53996 1.11781 1.5455 1.10428 1.55547 1.09422C1.56543 1.08415 1.57902 1.07837 1.59329 1.07812H3.2468C3.26106 1.07837 3.27465 1.08415 3.28462 1.09422C3.29459 1.10428 3.30013 1.11781 3.30004 1.13187V2.3183C3.30021 2.33241 3.29471 2.34602 3.28473 2.35615C3.27476 2.36628 3.26112 2.37211 3.2468 2.37235H1.59329C1.57897 2.37211 1.56533 2.36628 1.55535 2.35615C1.54538 2.34602 1.53987 2.33241 1.54004 2.3183Z" fill="white"/>
<path d="M15.5865 4.85311C15.7437 5.25791 15.8196 5.68974 15.8196 6.14891C15.8196 6.60777 15.7437 7.0396 15.5868 7.4444C15.4368 7.83548 15.2122 8.19466 14.9253 8.5026C14.6452 8.80433 14.3059 9.04684 13.9279 9.2154C13.5434 9.3936 13.1315 9.47971 12.687 9.47971C12.316 9.4819 11.9481 9.41416 11.6029 9.28014C11.2866 9.16197 11.0335 9.01237 10.8431 8.83134C10.837 8.82549 10.8296 8.82118 10.8214 8.81875C10.8133 8.81633 10.8047 8.81587 10.7963 8.81741C10.7879 8.81895 10.78 8.82244 10.7733 8.8276C10.7666 8.83276 10.7612 8.83943 10.7577 8.84705L10.5498 9.2924C10.5455 9.30155 10.5387 9.30932 10.5301 9.31477C10.5215 9.32023 10.5116 9.32315 10.5013 9.3232H9.07676C9.06968 9.32316 9.06268 9.32174 9.05616 9.31903C9.04964 9.31633 9.04373 9.31238 9.03875 9.30742C9.03378 9.30246 9.02984 9.29658 9.02717 9.29012C9.0245 9.28366 9.02315 9.27674 9.02319 9.26977V0.0690536C9.02319 0.0395107 9.04711 0.015625 9.07676 0.015625H10.7363C10.766 0.015625 10.7899 0.0395107 10.7899 0.0690536V3.38917C10.7899 3.43474 10.8441 3.45894 10.8788 3.42908C11.3533 3.02365 11.953 2.82314 12.6867 2.82314C13.1315 2.82314 13.5434 2.90957 13.9279 3.08211C14.3059 3.25066 14.6452 3.49317 14.9253 3.79491C15.2071 4.09725 15.4293 4.45365 15.5865 4.85311ZM13.977 6.84002C14.0647 6.62007 14.1088 6.38556 14.1068 6.14922C14.1068 5.91194 14.0634 5.68502 13.977 5.46942C13.8978 5.26024 13.7761 5.06922 13.6193 4.90811C13.4662 4.75225 13.2864 4.62435 13.0881 4.53034C12.8861 4.43762 12.6659 4.38977 12.4431 4.39017C12.21 4.39017 11.9935 4.42254 11.7926 4.48728C11.5974 4.54891 11.4193 4.65421 11.2723 4.79497C11.1205 4.93514 11.0013 5.11334 10.9203 5.33994C10.8333 5.56622 10.7899 5.84154 10.7899 6.17594C10.7899 6.47294 10.8333 6.73222 10.9203 6.94782C10.9937 7.15057 11.1142 7.33356 11.2723 7.48211C11.419 7.62228 11.5921 7.7304 11.7926 7.80048C11.9935 7.87591 12.21 7.90828 12.4431 7.90828C12.6707 7.90828 12.8875 7.86522 13.0881 7.76811C13.2873 7.67791 13.4675 7.55157 13.6193 7.39568C13.7737 7.23485 13.8951 7.04619 13.977 6.84002Z" fill="white"/>
</svg>
